<?xml version="1.0" encoding="utf-8"?>
<!-- Generator: Adobe Illustrator 24.0.1, SVG Export Plug-In . SVG Version: 6.00 Build 0)  -->
<!DOCTYPE svg PUBLIC "-//W3C//DTD SVG 1.1//EN" "http://www.w3.org/Graphics/SVG/1.1/DTD/svg11.dtd" [
	<!ENTITY ns_extend "http://ns.adobe.com/Extensibility/1.0/">
	<!ENTITY ns_ai "http://ns.adobe.com/AdobeIllustrator/10.0/">
	<!ENTITY ns_graphs "http://ns.adobe.com/Graphs/1.0/">
	<!ENTITY ns_vars "http://ns.adobe.com/Variables/1.0/">
	<!ENTITY ns_imrep "http://ns.adobe.com/ImageReplacement/1.0/">
	<!ENTITY ns_sfw "http://ns.adobe.com/SaveForWeb/1.0/">
	<!ENTITY ns_custom "http://ns.adobe.com/GenericCustomNamespace/1.0/">
	<!ENTITY ns_adobe_xpath "http://ns.adobe.com/XPath/1.0/">
]>
<svg version="1.1" id="Layer_1" xmlns:x="&ns_extend;" xmlns:i="&ns_ai;" xmlns:graph="&ns_graphs;"
	 xmlns="http://www.w3.org/2000/svg" xmlns:xlink="http://www.w3.org/1999/xlink" x="0px" y="0px" viewBox="0 0 44.4 45"
	 style="enable-background:new 0 0 44.4 45;" xml:space="preserve">
<style type="text/css">
	.st0{fill:#FFFFFF;}
</style>
<metadata>
	<sfw  xmlns="&ns_sfw;">
		<slices></slices>
		<sliceSourceBounds  bottomLeftOrigin="true" height="44.7" width="44.3" x="-44" y="0.1"></sliceSourceBounds>
	</sfw>
</metadata>
<path class="st0" d="M31.9,12.7L31.9,12.7V1.3c0-0.6,0.5-1.1,1.1-1.1l11.4,11.4c0,0.6-0.5,1.1-1.1,1.1H31.9z"/>
<path class="st0" d="M1.3,12.7c-0.6,0-1.1-0.5-1.1-1.1V1.3c0-0.6,0.5-1.1,1.1-1.1h10.3c0.6,0,1.1,0.5,1.1,1.1v10.3
	c0,0.6-0.5,1.1-1.1,1.1C11.6,12.7,1.3,12.7,1.3,12.7z"/>
<path class="st0" d="M17.2,44.9c-0.6,0-1.1-0.5-1.1-1.1V32.4l0,0h12.5v11.4c0,0.6-0.5,1.1-1.1,1.1H17.2z"/>
<path class="st0" d="M1.3,44.9c-0.6,0-1.1-0.5-1.1-1.1V32.4l0,0h12.5l0,0v11.4c0,0.6-0.5,1.1-1.1,1.1H1.3z"/>
<path class="st0" d="M31.9,28.8V17.4c0-0.6,0.5-1.1,1.1-1.1h10.3c0.6,0,1.1,0.5,1.1,1.1v11.4H31.9z"/>
<path class="st0" d="M17.2,28.8c-0.6,0-1.1-0.5-1.1-1.1V17.4c0-0.6,0.5-1.1,1.1-1.1h10.3c0.6,0,1.1,0.5,1.1,1.1v10.3
	c0,0.6-0.5,1.1-1.1,1.1L17.2,28.8z"/>
<path class="st0" d="M26.7,0.2h-9.6c-0.6,0-1.1,0.5-1.1,1.1v9.6L26.7,0.2z"/>
<polygon class="st0" points="17.8,12.7 28.5,12.7 28.5,2 "/>
<path class="st0" d="M10.8,16.2H1.2c-0.6,0-1.1,0.5-1.1,1.1v9.6L10.8,16.2z"/>
<polygon class="st0" points="1.8,28.7 12.6,28.7 12.6,28.7 12.6,18 "/>
<path class="st0" d="M42.7,32.4h-9.6c-0.6,0-1.1,0.5-1.1,1.1v9.6L42.7,32.4z"/>
<path class="st0" d="M33.7,44.9h9.6c0.6,0,1.1-0.5,1.1-1.1v-9.6L33.7,44.9z"/>
</svg>
