<?xml version="1.0" encoding="utf-8"?>
<!-- Generator: Adobe Illustrator 25.4.1, SVG Export Plug-In . SVG Version: 6.00 Build 0)  -->
<svg version="1.1" id="Layer_1" xmlns="http://www.w3.org/2000/svg" xmlns:xlink="http://www.w3.org/1999/xlink" x="0px" y="0px"
	 viewBox="0 0 684.4 221.8" style="enable-background:new 0 0 684.4 221.8;" xml:space="preserve">
<style type="text/css">
	.st0{enable-background:new    ;}
	.st1{fill:#231F20;}
	.st2{fill:#FDE596;}
	.st3{fill:#60B3B1;}
	.st4{fill:#F3986A;}
	.st5{fill:#ED694C;}
	.st6{fill:#F9C075;}
</style>
<g class="st0">
	<path class="st1" d="M250.1,174.4c-0.1-5.3-1.4-8.6-7.3-8.6c-4.7,0-7.6,1.6-7.6,6.7c0,6.4,3.2,6.6,8.2,10.1
		c5.3,3.8,10.8,5,10.8,13.4c0,7.7-4,11.5-11.5,11.5c-8.5,0-12.2-4.6-11.9-13h4c0,4.8,0.4,9.8,8.1,9.8c5,0,7.5-2.7,7.5-7.7
		c0-5.9-3.9-7.6-10.1-11.4c-8.4-5.2-8.8-7.7-8.8-12.1c-0.1-7.5,4.7-10.6,11.8-10.6c9,0,10.9,5.6,10.9,11.8H250.1z"/>
	<path class="st1" d="M264.1,206.8v-43.3h6.5l12.8,39.1h0.1l12.6-39.1h6.1v43.3h-3.8v-39.6h-0.1l-12.7,39.6h-4.4l-13.1-39.6h-0.1
		v39.6H264.1z"/>
	<path class="st1" d="M327.9,163.5l13.5,43.3h-4l-3.5-11.4h-17l-3.4,11.4h-3.8l13.7-43.3H327.9z M332.9,192.1l-7.4-24.5h-0.1
		l-7.3,24.5H332.9z"/>
	<path class="st1" d="M352.6,185.8v21h-3.8v-43.3h11.9c8.3,0,10.4,2.8,10.4,10.4c0,5.4-0.9,9-6.7,10.3v0.1c6.1,1.3,6.4,2,6.4,17.5
		c0,1.7,0.3,3.4,0.4,5h-3.7c-0.4-1.3-0.5-8.5-0.6-10.8c-0.1-1.9,1.2-10.2-7.1-10.2H352.6z M352.6,182.5h6.2c5.8,0,8.5-1.5,8.5-8.8
		c0-5.9-2.3-7.1-6.8-7.1h-7.9V182.5z"/>
	<path class="st1" d="M388.4,166.7h-10.6v-3.2h25v3.2h-10.6v40.1h-3.8V166.7z"/>
	<path class="st1" d="M425.2,185.1c0-11.7,0.1-22.5,13.1-22.5c10.5,0,10.7,8.6,10.7,12.5h-3.8c0-4.8-1.3-9.3-6.8-9.3
		c-9.1,0-9.2,7.7-9.2,19.3c0,11.5,0.1,19.3,9.2,19.3c5,0,6.8-4.4,6.9-10h4.1c0,3.1-0.7,13.3-11,13.3
		C425.3,207.6,425.2,196.8,425.2,185.1z"/>
	<path class="st1" d="M473.2,163.5l13.5,43.3h-4l-3.5-11.4h-17l-3.4,11.4H455l13.7-43.3H473.2z M478.2,192.1l-7.4-24.5h-0.1
		l-7.3,24.5H478.2z"/>
	<path class="st1" d="M497.1,166.7h-10.6v-3.2h25v3.2H501v40.1h-3.8V166.7z"/>
	<path class="st1" d="M530.8,163.5l13.5,43.3h-4l-3.5-11.4h-17l-3.4,11.4h-3.8l13.7-43.3H530.8z M535.8,192.1l-7.4-24.5h-0.1
		l-7.3,24.5H535.8z"/>
	<path class="st1" d="M551.5,206.8v-43.3h3.8v40.1h14.3v3.2H551.5z"/>
	<path class="st1" d="M589.9,162.6c13,0,13.1,10.8,13.1,22.5c0,11.7-0.1,22.5-13.1,22.5s-13.1-10.8-13.1-22.5
		C576.8,173.4,577,162.6,589.9,162.6z M589.9,204.4c9.1,0,9.2-7.7,9.2-19.3c0-11.5-0.1-19.3-9.2-19.3s-9.2,7.7-9.2,19.3
		C580.7,196.6,580.8,204.4,589.9,204.4z"/>
	<path class="st1" d="M633.8,187.4H625v-3.2h12.6v21.7c-3.8,1.2-7.9,1.8-11.9,1.8c-14.1,0-13.1-14.1-13.1-22.5
		c0-8.4-1-22.5,13.1-22.5c8.3,0,12.5,3.5,12.4,11.9h-3.8c0-5.7-2.5-8.7-8.5-8.7c-9.4,0-9.2,8.3-9.2,19.3c0,10.9-0.1,19.3,9.2,19.3
		c3.3,0,6.1-0.5,8.1-1.3V187.4z"/>
	<path class="st1" d="M667.4,174.4c-0.1-5.3-1.4-8.6-7.3-8.6c-4.7,0-7.6,1.6-7.6,6.7c0,6.4,3.2,6.6,8.2,10.1
		c5.3,3.8,10.8,5,10.8,13.4c0,7.7-4,11.5-11.5,11.5c-8.5,0-12.2-4.6-11.9-13h4c0,4.8,0.4,9.8,8.1,9.8c5,0,7.5-2.7,7.5-7.7
		c0-5.9-3.9-7.6-10.1-11.4c-8.4-5.2-8.8-7.7-8.8-12.1c-0.1-7.5,4.7-10.6,11.8-10.6c9,0,10.9,5.6,10.9,11.8H667.4z"/>
</g>
<g class="st0">
	<path d="M278.1,95.8v23.9c0,14.3-7.1,21.4-21.4,21.4h-4.3c-14.3,0-21.4-7.1-21.4-21.4V45.2c0-14.3,7.1-21.4,21.4-21.4h4.3
		c14.2,0,21.1,6.9,21.1,21.1v20.8h-12.9V44.5c0-5.9-2.8-8.7-8.7-8.7h-3.3c-5.9,0-8.7,2.8-8.7,8.7v75.8c0,5.9,2.8,8.7,8.7,8.7h3.6
		c5.9,0,8.7-2.8,8.7-8.7V95.8H278.1z"/>
	<path d="M345.5,101.2v38.9h-13.2v-38.4c0-6.9-3.1-10.1-10.1-10.1h-9.7v48.5h-13.2V24.7h24.6c14.3,0,21.4,7.1,21.4,21.4v21.4
		c0,10.4-3.6,15.5-10.2,18.1C342.4,87.7,345.5,92.3,345.5,101.2z M323.5,36.8h-10.9v43.2h9.9c6.6,0,9.7-3.1,9.7-9.7V45.5
		C332.2,39.6,329.4,36.8,323.5,36.8z"/>
	<path d="M380.8,140.1h-13.2V24.7h13.2V140.1z"/>
</g>
<g class="st0">
	<path d="M416.4,140.1V36.9h-17.3V24.7h47.8v12.2h-17.3v103.2H416.4z"/>
</g>
<g class="st0">
	<path d="M500.8,24.7v12.2h-23.1v38.2H500v12h-22.3v40.7h23.4v12.2h-36.6V24.7H500.8z"/>
	<path d="M567.9,101.2v38.9h-13.2v-38.4c0-6.9-3.1-10.1-10.1-10.1h-9.7v48.5h-13.2V24.7h24.6c14.3,0,21.4,7.1,21.4,21.4v21.4
		c0,10.4-3.6,15.5-10.2,18.1C564.8,87.7,567.9,92.3,567.9,101.2z M545.8,36.8h-10.9v43.2h9.9c6.6,0,9.7-3.1,9.7-9.7V45.5
		C554.6,39.6,551.8,36.8,545.8,36.8z"/>
	<path d="M603.2,140.1H590V24.7h13.2V140.1z"/>
</g>
<g class="st0">
	<path d="M662,140.1l-2.8-19.3H638l-2.6,19.3h-12.7l17.8-115.7h16.8l17.8,115.7H662z M639.6,109h18l-9.1-64L639.6,109z"/>
</g>
<path class="st2" d="M139,73.1c-2.6,0-4.7-2.1-4.7-4.7l-0.1-43.4c0-2.6,2.1-4.7,4.7-4.7c0,0,0,0,0,0l48.1,48c0,2.6-2.1,4.7-4.7,4.7
	L139,73.1z"/>
<path class="st3" d="M5.2,73.4c-2.6,0-4.7-2.1-4.7-4.7l0,0L0.4,25.3c0-2.6,2.1-4.7,4.7-4.7c0,0,0,0,0,0l43.4-0.1
	c2.6,0,4.7,2.1,4.7,4.7l0.1,43.4c0,2.6-2.1,4.7-4.7,4.7L5.2,73.4z"/>
<path class="st4" d="M72.3,209.2c-2.6,0-4.7-2.1-4.6-4.7l-0.1-43.4c0-2.6,2.1-4.7,4.7-4.7l43.4-0.1c2.6,0,4.7,2.1,4.7,4.7l0.1,43.4
	c0,2.6-2.1,4.7-4.7,4.7L72.3,209.2z"/>
<path class="st5" d="M5.4,209.3c-2.6,0-4.7-2.1-4.7-4.7l-0.1-43.4c0-2.6,2.1-4.7,4.7-4.7l43.4-0.1c2.6,0,4.7,2.1,4.7,4.7l0.1,43.3
	c0,2.6-2.1,4.7-4.7,4.7L5.4,209.3z"/>
<path class="st4" d="M139.2,141.1c-2.6,0-4.7-2.1-4.7-4.7l-0.1-43.4c0-2.6,2.1-4.7,4.7-4.7c0,0,0,0,0,0l43.4-0.1
	c2.6,0,4.7,2.1,4.7,4.7l0.1,43.4c0,2.6-2.1,4.7-4.7,4.7c0,0,0,0,0,0L139.2,141.1z"/>
<path class="st6" d="M72.2,141.2c-2.6,0-4.7-2.1-4.7-4.7l-0.1-43.4c0-2.6,2.1-4.7,4.7-4.7l43.4-0.1c2.6,0,4.7,2.1,4.7,4.7l0.1,43.4
	c0,2.6-2.1,4.7-4.7,4.7c0,0,0,0,0,0L72.2,141.2z"/>
<path class="st3" d="M112.7,20.4l-40.6,0.1c-2.6,0-4.7,2.1-4.7,4.7v0l0.1,40.6L112.7,20.4z"/>
<path class="st2" d="M74.9,73.2l40.6-0.1c2.6,0,4.7-2.1,4.7-4.7l-0.1-40.6L74.9,73.2z"/>
<path class="st3" d="M45.3,88L4.7,88.1c-2.6,0-4.7,2.1-4.7,4.7l0.1,40.6L45.3,88z"/>
<path class="st6" d="M7.5,140.8l40.6-0.1c2.6,0,4.7-2.1,4.7-4.7c0,0,0,0,0,0l-0.1-40.6L7.5,140.8z"/>
<path class="st4" d="M179.8,156.2l-40.6,0.1c-2.6,0-4.7,2.1-4.7,4.7c0,0,0,0,0,0l0.1,40.6L179.8,156.2z"/>
<path class="st3" d="M142,209l40.6-0.1c2.6,0,4.7-2.1,4.7-4.7l-0.1-40.6L142,209z"/>
</svg>
